<?xml version="1.0" standalone="no"?><!DOCTYPE svg PUBLIC "-//W3C//DTD SVG 1.1//EN" "http://www.w3.org/Graphics/SVG/1.1/DTD/svg11.dtd"><svg t="1653320349610" class="icon" viewBox="0 0 1024 1024" version="1.1" xmlns="http://www.w3.org/2000/svg" p-id="4586" xmlns:xlink="http://www.w3.org/1999/xlink" width="200" height="200"><defs><style type="text/css">@font-face { font-family: feedback-iconfont; src: url("//at.alicdn.com/t/font_1031158_u69w8yhxdu.woff2?t=1630033759944") format("woff2"), url("//at.alicdn.com/t/font_1031158_u69w8yhxdu.woff?t=1630033759944") format("woff"), url("//at.alicdn.com/t/font_1031158_u69w8yhxdu.ttf?t=1630033759944") format("truetype"); }
</style></defs><path d="M656.64 595.2m-288 0a288 288 0 1 0 576 0 288 288 0 1 0-576 0Z" fill="#FFD84A" p-id="4587"></path><path d="M488.96 921.6c-75.52 0-148.48-20.48-213.76-60.16l-75.52 25.6c-12.8 3.84-26.88 1.28-37.12-7.68-10.24-8.96-15.36-23.04-12.8-35.84l15.36-80.64C110.08 692.48 79.36 602.88 79.36 512c0-225.28 184.32-409.6 409.6-409.6s409.6 184.32 409.6 409.6-184.32 409.6-409.6 409.6z m-206.08-116.48l10.24 6.4c58.88 38.4 126.72 58.88 195.84 58.88 197.12 0 358.4-161.28 358.4-358.4s-161.28-358.4-358.4-358.4-358.4 161.28-358.4 358.4c0 83.2 29.44 165.12 81.92 229.12l7.68 8.96L204.8 832l78.08-26.88z" p-id="4588"></path><path d="M487.68 709.12c-49.92 0-96-28.16-122.88-75.52-6.4-11.52-2.56-26.88 8.96-33.28 11.52-6.4 26.88-2.56 33.28 8.96 17.92 32 49.92 51.2 81.92 51.2 33.28 0 62.72-20.48 80.64-52.48 6.4-11.52 21.76-16.64 33.28-10.24 11.52 6.4 16.64 21.76 10.24 33.28-25.6 47.36-71.68 76.8-121.6 78.08h-3.84z" p-id="4589"></path></svg>